<?xml version="1.0" encoding="utf-8"?>
<!-- Generator: Adobe Illustrator 26.1.0, SVG Export Plug-In . SVG Version: 6.00 Build 0)  -->
<svg version="1.1" id="Layer_1" xmlns="http://www.w3.org/2000/svg" xmlns:xlink="http://www.w3.org/1999/xlink" x="0px" y="0px"
	 viewBox="0 0 2000 2000" style="enable-background:new 0 0 2000 2000;" xml:space="preserve">
<style type="text/css">
	.st0{fill:none;stroke:#010101;stroke-width:56;stroke-miterlimit:10;}
	.st1{fill:#FFFFFF;stroke:#010101;stroke-width:56;stroke-linecap:round;stroke-linejoin:round;stroke-miterlimit:10;}
	.st2{fill:none;stroke:#010101;stroke-width:56;stroke-linecap:round;stroke-linejoin:round;stroke-miterlimit:10;}
	.st3{fill:none;stroke:#010101;stroke-miterlimit:10;}
	.st4{fill:#FFFFFF;stroke:#010101;stroke-linecap:round;stroke-linejoin:round;stroke-miterlimit:10;}
	.st5{fill:none;stroke:#010101;stroke-linecap:round;stroke-linejoin:round;stroke-miterlimit:10;}
</style>
<g>
	<path class="st0" d="M1159.8,900.9c37.5,258.4,67,605,84.6,1005.3c-69.3,60.6-144.4,93.8-222.9,93.8c-94.9,0-185-48.5-265.8-135.7
		c17.7-382.5,46.4-714.2,82.7-963.4"/>
	<g>
		<path class="st1" d="M15.6,1512.5"/>
		<polyline class="st2" points="1013.5,189.6 331.5,629.7 751.7,900.9 1013.6,900.9 1275.5,900.9 1695.8,629.7 1013.7,189.6 		"/>
		<polyline class="st2" points="1013.5,189.6 42.9,629.7 640.9,900.9 1013.6,900.9 1386.3,900.9 1984.4,629.7 1013.8,189.6 		"/>
		<polyline class="st2" points="1013.6,189.6 769.3,629.7 919.8,900.9 1013.6,900.9 1107.4,900.9 1258,629.7 1013.7,189.6 		"/>
		<polyline class="st2" points="42.9,629.7 331.5,629.7 769.3,629.7 1258,629.7 1695.8,629.7 1984.4,629.7 		"/>
	</g>
</g>
<path class="st3" d="M-383.8,657.6c1.2,8.3,2.1,19.4,2.7,32.2c-2.2,1.9-4.6,3-7.1,3c-3,0-5.9-1.6-8.5-4.3
	c0.6-12.2,1.5-22.9,2.6-30.8"/>
<g>
	<path class="st4" d="M-420.9,677.2"/>
	<polyline class="st5" points="-389,634.8 -410.8,648.9 -397.3,657.6 -388.9,657.6 -380.6,657.6 -367.1,648.9 -388.9,634.8 	"/>
	<polyline class="st5" points="-389,634.8 -420,648.9 -400.9,657.6 -388.9,657.6 -377,657.6 -357.9,648.9 -388.9,634.8 	"/>
	<polyline class="st5" points="-388.9,634.8 -396.8,648.9 -392,657.6 -388.9,657.6 -385.9,657.6 -381.1,648.9 -388.9,634.8 	"/>
	<polyline class="st5" points="-420,648.9 -410.8,648.9 -396.8,648.9 -381.1,648.9 -367.1,648.9 -357.9,648.9 	"/>
</g>
</svg>
